<svg width="30" height="30" viewBox="0 0 30 30" fill="none" xmlns="http://www.w3.org/2000/svg">
<path fill-rule="evenodd" clip-rule="evenodd" d="M0 15C0 6.71573 6.71573 0 15 0C23.2843 0 30 6.71573 30 15C30 23.2843 23.2843 30 15 30C6.71573 30 0 23.2843 0 15Z" fill="#5468FF"/>
<path fill-rule="evenodd" clip-rule="evenodd" d="M15.0007 12.333C16.4734 12.333 17.6674 13.5269 17.6674 14.9997C17.6674 16.4724 16.4734 17.6664 15.0007 17.6664C13.5278 17.6664 12.334 16.4724 12.334 14.9997C12.334 13.5269 13.5278 12.333 15.0007 12.333V12.333Z" fill="#5468FF"/>
<path d="M21 21H9C8.60218 21 8.22064 20.842 7.93934 20.5607C7.65804 20.2794 7.5 19.8978 7.5 19.5V10.4348C7.51682 10.0483 7.68226 9.68337 7.96176 9.41603C8.24126 9.14868 8.61323 8.99963 9 9H21C21.3978 9 21.7794 9.15804 22.0607 9.43934C22.342 9.72065 22.5 10.1022 22.5 10.5V19.5C22.5 19.8978 22.342 20.2794 22.0607 20.5607C21.7794 20.842 21.3978 21 21 21ZM9 11.901V19.5H21V11.901L15 15.9L9 11.901ZM9.6 10.5L15 14.1L20.4 10.5H9.6Z" fill="white"/>
</svg>
