<svg width="30" height="30" viewBox="0 0 30 30" fill="none" xmlns="http://www.w3.org/2000/svg">
<path fill-rule="evenodd" clip-rule="evenodd" d="M0 15C0 6.71573 6.71573 0 15 0C23.2843 0 30 6.71573 30 15C30 23.2843 23.2843 30 15 30C6.71573 30 0 23.2843 0 15Z" fill="#5468FF"/>
<path d="M14.0402 14.9288C15.0052 14.4658 15.509 13.7652 15.509 12.6746C15.509 10.524 13.9128 10 12.0708 10H7V20.7959H12.2134C14.1677 20.7959 16.0036 19.8546 16.0036 17.6613C16.0036 16.3057 15.3633 15.3035 14.0402 14.9288V14.9288ZM9.36393 11.843H11.5822C12.4349 11.843 13.2027 12.0836 13.2027 13.0767C13.2027 13.9936 12.6049 14.3622 11.7612 14.3622H9.36393V11.843V11.843ZM11.8917 18.9621H9.36393V15.9889H11.9403C12.9811 15.9889 13.6397 16.4245 13.6397 17.5303C13.6397 18.6209 12.8537 18.9621 11.8917 18.9621V18.9621ZM22.7707 11.6297H18.41V10.5666H22.7707V11.6297V11.6297ZM24.4792 17.0003C24.4792 14.6882 23.1318 12.7599 20.689 12.7599C18.3159 12.7599 16.7046 14.5511 16.7046 16.8967C16.7046 19.3307 18.231 21 20.689 21C22.5492 21 23.7539 20.1592 24.3335 18.3711H22.446C22.2427 19.0382 21.4051 19.3916 20.7557 19.3916C19.5025 19.3916 18.8439 18.6544 18.8439 17.4024H24.461C24.4701 17.2744 24.4792 17.1374 24.4792 17.0003ZM18.847 16.0498C18.9168 15.0233 19.5965 14.3805 20.6222 14.3805C21.6965 14.3805 22.2366 15.0141 22.3276 16.0498H18.847Z" fill="white"/>
</svg>
