<svg width="30" height="30" viewBox="0 0 30 30" fill="none" xmlns="http://www.w3.org/2000/svg">
<path fill-rule="evenodd" clip-rule="evenodd" d="M0 15C0 6.71573 6.71573 0 15 0C23.2843 0 30 6.71573 30 15C30 23.2843 23.2843 30 15 30C6.71573 30 0 23.2843 0 15Z" fill="#5468FF"/>
<path fill-rule="evenodd" clip-rule="evenodd" d="M15.0007 12.333C16.4734 12.333 17.6674 13.5269 17.6674 14.9997C17.6674 16.4724 16.4734 17.6664 15.0007 17.6664C13.5278 17.6664 12.334 16.4724 12.334 14.9997C12.334 13.5269 13.5278 12.333 15.0007 12.333V12.333Z" fill="#5468FF"/>
<path fill-rule="evenodd" clip-rule="evenodd" d="M15 12C14.1716 12 13.5 12.6716 13.5 13.5C13.5 14.3284 14.1716 15 15 15C15.8284 15 16.5 14.3284 16.5 13.5C16.5 12.6716 15.8284 12 15 12ZM12 13.5C12 11.8431 13.3431 10.5 15 10.5C16.6569 10.5 18 11.8431 18 13.5C18 15.1569 16.6569 16.5 15 16.5C13.3431 16.5 12 15.1569 12 13.5Z" fill="white"/>
<path fill-rule="evenodd" clip-rule="evenodd" d="M10.227 8.72703C11.4929 7.46116 13.2098 6.75 15 6.75C16.7902 6.75 18.5071 7.46116 19.773 8.72703C21.0388 9.9929 21.75 11.7098 21.75 13.5C21.75 14.2625 21.6691 14.9341 21.4582 15.5703C21.2462 16.2098 20.9153 16.7762 20.4602 17.344C20.4542 17.3515 20.4481 17.3589 20.4418 17.3662L15.5668 22.9912C15.4243 23.1556 15.2175 23.25 15 23.25C14.7825 23.25 14.5757 23.1556 14.4332 22.9912L9.55823 17.3662C9.55194 17.3589 9.54578 17.3515 9.53977 17.344C9.0847 16.7762 8.75377 16.2098 8.54178 15.5703C8.3309 14.9341 8.25 14.2625 8.25 13.5C8.25 11.7098 8.96116 9.9929 10.227 8.72703ZM15 8.25C13.6076 8.25 12.2723 8.80312 11.2877 9.78769C10.3031 10.7723 9.75 12.1076 9.75 13.5C9.75 14.1565 9.81985 14.6587 9.9656 15.0983C10.1091 15.5312 10.3381 15.9397 10.7015 16.395L15 21.3548L19.2985 16.395C19.6619 15.9397 19.8909 15.5312 20.0344 15.0983C20.1801 14.6587 20.25 14.1565 20.25 13.5C20.25 12.1076 19.6969 10.7723 18.7123 9.78769C17.7277 8.80312 16.3924 8.25 15 8.25Z" fill="white"/>
</svg>
