<svg width="1440" height="100" viewBox="0 0 1440 100" fill="none" xmlns="http://www.w3.org/2000/svg">
<path d="M63.7547 15.4914C63.7547 13.137 61.1186 13.137 59.947 13.4313C61.5872 12.1364 63.5106 12.4504 64.194 12.8428L80.0333 20.6093C81.5426 21.3493 82.4999 22.8891 82.4999 24.5765V75.6691C82.4999 77.3791 81.5171 78.9353 79.9772 79.6634L65.0727 86.7108C64.0475 87.1522 61.8215 88.2411 59.947 86.7108C62.2902 87.1522 63.5594 85.4846 63.7547 84.3564V15.4914Z" fill="url(#paint0_linear_17_157)"/>
<path d="M60.1372 13.3886C61.3806 13.1429 63.7547 13.2568 63.7547 15.4911V33.0778L15.7328 69.4066C14.8934 70.0416 13.7122 69.9363 12.9972 69.1627L8.04785 63.8071C7.27249 62.9681 7.32674 61.6548 8.16863 60.8833L59.9471 13.431L60.1372 13.3886Z" fill="url(#paint1_linear_17_157)"/>
<path d="M63.7547 67.064L15.7328 30.7352C14.8934 30.1002 13.7121 30.2055 12.9972 30.9791L8.04785 36.3347C7.27249 37.1737 7.32674 38.4869 8.16863 39.2585L59.9471 86.7108C62.2902 87.1522 63.5595 85.4845 63.7547 84.3564V67.064Z" fill="url(#paint2_linear_17_157)"/>
<path d="M157.5 77.8295C157.5 83.1709 161.83 87.5 167.171 87.5H222.829C228.171 87.5 232.5 83.1703 232.5 77.8295V22.1705C232.5 16.8291 228.17 12.5 222.829 12.5H167.171C161.829 12.5 157.5 16.8296 157.5 22.1705V77.8295Z" fill="#563D7C"/>
<path d="M188.601 45.6752V35.0541H197.95C198.84 35.0541 199.699 35.1283 200.526 35.2767C201.352 35.4251 202.084 35.6901 202.72 36.0717C203.356 36.4533 203.865 36.9833 204.246 37.6617C204.628 38.3401 204.819 39.2093 204.819 40.2693C204.819 42.1773 204.246 43.5552 203.101 44.4032C201.957 45.2512 200.494 45.6752 198.713 45.6752H188.601ZM178.616 27.2949V72.7051H200.621C202.656 72.7051 204.638 72.4507 206.568 71.9419C208.497 71.4331 210.214 70.6487 211.719 69.5887C213.224 68.5287 214.422 67.1613 215.313 65.4865C216.203 63.8117 216.648 61.8295 216.648 59.5399C216.648 56.6991 215.959 54.2718 214.581 52.2578C213.203 50.2438 211.115 48.834 208.317 48.0284C210.352 47.0532 211.889 45.8024 212.928 44.276C213.966 42.7496 214.486 40.8417 214.486 38.5521C214.486 36.4321 214.136 34.6513 213.436 33.2097C212.737 31.7681 211.751 30.6127 210.479 29.7435C209.207 28.8743 207.681 28.2489 205.9 27.8673C204.119 27.4857 202.147 27.2949 199.985 27.2949H178.616ZM188.601 64.9459V52.4804H199.476C201.639 52.4804 203.377 52.9786 204.691 53.975C206.006 54.9714 206.663 56.6356 206.663 58.9676C206.663 60.1548 206.462 61.1299 206.059 61.8931C205.656 62.6563 205.115 63.2605 204.437 63.7057C203.759 64.1509 202.974 64.4689 202.084 64.6597C201.193 64.8505 200.261 64.9459 199.285 64.9459H188.601Z" fill="white"/>
<path d="M344.482 91.3302L320.373 84.6372L315 24.3765H374.036L368.658 84.6278L344.482 91.3302Z" fill="#264DE4"/>
<path d="M364.054 80.7907L368.65 29.3032H344.518V86.2067L364.054 80.7907Z" fill="#2965F1"/>
<path d="M327.317 51.6533L327.979 59.044H344.518V51.6533H327.317Z" fill="#EBEBEB"/>
<path d="M325.986 36.6948L326.657 44.0856H344.518V36.6948H325.986Z" fill="#EBEBEB"/>
<path d="M344.518 70.8481L344.486 70.8568L336.255 68.6342L335.729 62.7397H328.309L329.345 74.3443L344.484 78.5471L344.518 78.5376V70.8481Z" fill="#EBEBEB"/>
<path d="M328.894 8H337.845V11.7433H332.637V15.4867H337.845V19.23H328.894V8Z" fill="#2965F1"/>
<path d="M339.635 8H348.587V11.2551H343.379V11.9061H348.587V19.3928H339.635V15.9749H344.844V15.3239H339.635V8Z" fill="#2965F1"/>
<path d="M350.377 8H359.329V11.2551H354.121V11.9061H359.329V19.3928H350.377V15.9749H355.585V15.3239H350.377V8Z" fill="#2965F1"/>
<path d="M361.672 51.6539L363.007 36.6948H344.493V44.0856H354.907L354.234 51.6539H344.493V59.0445H353.594L352.736 68.6297L344.493 70.8546V78.5437L359.644 74.3445L359.755 73.0959L361.492 53.6385L361.672 51.6539Z" fill="white"/>
<path d="M524.519 24.7104L519.141 84.9642L494.964 91.6668L470.853 84.9736L465.481 24.7104H524.519Z" fill="#E44D26"/>
<path d="M495 86.5435L514.536 81.1273L519.132 29.6377H495V86.5435Z" fill="#F16529"/>
<path d="M495 44.4199H484.544L485.22 51.9884H495V59.3794H478.46L476.467 37.0288H495V44.4199Z" fill="#EBEBEB"/>
<path d="M478.791 63.0751H486.21L486.736 68.9697L494.968 71.1924L495 71.1838V78.8735L494.966 78.883L479.826 74.68L478.791 63.0751Z" fill="#EBEBEB"/>
<path d="M474.73 8.3335H470.974V19.5711H474.73V15.8081H478.166V19.5711H481.922V8.3335H478.165V12.0444H474.73V8.3335Z" fill="#F16529"/>
<path d="M483.554 12.0601H486.861L486.861 19.5711H490.617V12.0601H493.925V8.3335H483.554V12.0601Z" fill="#F16529"/>
<path d="M495.571 8.3335H499.488L501.897 12.2821L504.304 8.3335H508.222V19.5711H504.481V14.0011L501.897 17.9967H501.832L499.247 14.0011V19.5711H495.571V8.3335Z" fill="#F16529"/>
<path d="M513.848 8.3335H510.091V19.5711H519.13V15.8566H513.848V8.3335Z" fill="#F16529"/>
<path d="M494.974 44.4199V37.0288H513.489L512.827 44.4199H494.974Z" fill="white"/>
<path d="M504.076 59.3795H494.974V51.9885H512.155L511.974 53.9732L510.126 74.6801L494.974 78.8795V71.19L503.218 68.9651L504.076 59.3795Z" fill="white"/>
<rect x="607.5" y="12.5" width="75" height="75" fill="#FFCA28"/>
<path d="M653.036 74.8779L658.558 71.224C658.99 72.5836 661.731 75.8125 665.192 75.8125C668.654 75.8125 670.261 73.9219 670.261 72.6686C670.261 69.2528 666.726 68.0486 665.029 67.4701C664.752 67.3758 664.524 67.2982 664.368 67.2303C664.288 67.1955 664.167 67.1493 664.012 67.09C662.124 66.3686 655.158 63.7072 655.158 55.9926C655.158 47.4952 663.359 46.5181 665.213 46.5181C666.426 46.5181 672.26 46.6668 675.165 52.1263L669.808 55.8651C668.633 53.4859 666.682 52.6999 665.481 52.6999C662.514 52.6999 661.896 54.8751 661.896 55.8651C661.896 58.6434 665.119 59.8886 667.841 60.9401C668.553 61.2151 669.231 61.477 669.808 61.7495C672.775 63.1516 677.143 65.4458 677.143 72.6686C677.143 76.2862 674.109 82.1431 666.47 82.1431C656.209 82.1431 653.489 75.9825 653.036 74.8779Z" fill="#3E3E3E"/>
<path d="M626.25 75.6035L632.005 71.9514C632.456 73.3103 634.209 75.8158 636.751 75.8158C639.294 75.8158 640.595 73.2042 640.595 71.9514V47.3217H647.674V71.9514C647.788 75.3487 645.904 82.1431 637.589 82.1431C629.944 82.1431 626.765 77.5993 626.25 75.6035Z" fill="#3E3E3E"/>
<path fill-rule="evenodd" clip-rule="evenodd" d="M794.979 12.5005C804.638 12.5005 814.298 12.5005 823.957 12.5C825.169 12.5 826.37 12.6052 827.533 12.9598C830.054 13.7285 831.39 15.5368 831.913 18.0291C832.121 19.0172 832.18 20.0247 832.182 21.0317C832.197 27.7967 832.209 34.5617 832.209 41.3266C832.21 53.6476 832.211 65.9685 832.186 78.2894C832.182 80.014 832.091 81.7576 831.239 83.3286C830.295 85.0712 829.001 86.4502 827.038 87.0568C826.684 87.1662 826.313 87.2909 825.95 87.2909C825.112 87.2914 824.297 87.4993 823.461 87.4993C804.547 87.4977 785.632 87.5087 766.717 87.4787C765.179 87.4761 763.615 87.3641 762.154 86.738C761.863 86.6133 761.57 86.5086 761.314 86.3139C759.453 84.896 758.19 83.1277 757.919 80.7348C757.822 79.872 757.791 79.0138 757.791 78.151C757.794 58.9788 757.796 39.8067 757.806 20.6345C757.806 19.5223 757.818 18.3911 758.16 17.3267C759.071 14.4898 761.064 12.9414 764.02 12.6268C764.706 12.5537 765.399 12.5063 766.089 12.5058C775.719 12.4979 785.349 12.5005 794.979 12.5005Z" fill="#FB7A24"/>
<path fill-rule="evenodd" clip-rule="evenodd" d="M795.226 60.2079C795.014 61.5028 794.866 62.6729 794.401 63.7514C792.223 68.8049 788.512 71.8843 782.949 72.4973C776.373 73.2218 770.299 69.1632 768.473 62.8596C767.811 60.5752 767.877 58.2465 768.117 55.9216C768.374 53.4372 769.105 51.0812 770.248 48.8588C770.412 48.541 770.409 48.3011 770.204 47.9933C768.449 45.3542 767.769 42.439 768.016 39.2922C768.148 37.6101 768.556 36.0012 769.319 34.4944C771.554 30.0802 776.461 26.3341 783.034 26.956C788.813 27.5027 794.166 32.4877 795.001 38.0942C795.043 38.3757 795.122 38.6519 795.215 39.067C795.353 38.3152 795.453 37.6948 795.582 37.0803C796.659 31.9869 801.644 26.6572 808.711 26.5914C815.874 26.5251 821.179 32.1426 822.179 37.3602C822.602 39.5652 822.529 41.7681 822.18 43.97C821.831 46.1697 821.185 48.2843 820.241 50.2999C820.032 50.7444 820.054 51.0643 820.32 51.4773C821.863 53.8681 822.544 56.4924 822.457 59.3425C822.274 65.2893 818.068 70.6222 812.282 72.0169C804.203 73.9636 798.01 69.1322 795.926 63.2869C795.587 62.3356 795.426 61.3423 795.226 60.2079ZM809.903 49.7601C809.989 49.4239 810.249 49.2224 810.437 48.9735C812.462 46.2818 813.528 43.275 813.29 39.8893C813.117 37.4181 811.084 35.6777 808.624 35.7697C806.162 35.8618 804.307 37.7606 804.272 40.224C804.27 40.4255 804.282 40.6275 804.269 40.828C804.1 43.4533 802.651 44.8913 800.456 45.0517C800.056 45.0812 799.654 45.117 799.252 45.118C796.403 45.1243 793.555 45.1233 790.706 45.1206C789.461 45.1196 788.228 45.2548 787.043 45.6205C781.512 47.3272 778.286 51.1096 777.218 56.7471C777.007 57.8625 776.816 59.0199 777.182 60.1659C777.707 61.809 778.685 63.0312 780.416 63.44C782.211 63.8635 783.774 63.3947 785.016 61.9852C785.818 61.074 786.072 59.9912 786.132 58.8027C786.287 55.7458 787.951 54.218 790.727 54.2411C794.986 54.2764 799.245 54.2485 803.504 54.2516C804.26 54.2522 804.267 54.2622 804.27 55.0098C804.278 56.3909 804.235 57.7735 804.288 59.1531C804.375 61.4049 806.356 63.2769 808.654 63.3426C811.022 63.4105 813.134 61.6585 813.288 59.3714C813.421 57.3921 813.412 55.4002 813.282 53.4193C813.182 51.8856 812.352 50.7929 810.946 50.1583C810.609 50.0068 810.255 49.8932 809.903 49.7601ZM783.207 45.1138C784.123 45.1138 784.871 45.1054 785.618 45.1175C785.988 45.1233 786.126 44.9639 786.123 44.6008C786.11 43.164 786.185 41.7224 786.093 40.2908C785.972 38.402 784.968 37.0367 783.209 36.348C781.406 35.6419 779.756 36.0449 778.361 37.3765C776.959 38.7145 776.773 40.3507 777.263 42.1417C777.713 43.7874 778.778 44.7224 780.451 45.0049C781.424 45.1685 782.401 45.0901 783.207 45.1138Z" fill="white"/>
<g clip-path="url(#clip0_17_157)">
<path d="M945 50C945 46.6848 946.317 43.5054 948.661 41.1612C951.005 38.817 954.185 37.5 957.5 37.5C960.815 37.5 963.995 38.817 966.339 41.1612C968.683 43.5054 970 46.6848 970 50C970 53.3152 968.683 56.4946 966.339 58.8388C963.995 61.183 960.815 62.5 957.5 62.5C954.185 62.5 951.005 61.183 948.661 58.8388C946.317 56.4946 945 53.3152 945 50Z" fill="#1ABCFE"/>
<path d="M920 75C920 71.6848 921.317 68.5054 923.661 66.1612C926.005 63.817 929.185 62.5 932.5 62.5H945V75C945 78.3152 943.683 81.4946 941.339 83.8388C938.995 86.183 935.815 87.5 932.5 87.5C929.185 87.5 926.005 86.183 923.661 83.8388C921.317 81.4946 920 78.3152 920 75V75Z" fill="#0ACF83"/>
<path d="M945 12.5V37.5H957.5C960.815 37.5 963.995 36.183 966.339 33.8388C968.683 31.4946 970 28.3152 970 25C970 21.6848 968.683 18.5054 966.339 16.1612C963.995 13.817 960.815 12.5 957.5 12.5H945Z" fill="#FF7262"/>
<path d="M920 25C920 28.3152 921.317 31.4946 923.661 33.8388C926.005 36.183 929.185 37.5 932.5 37.5H945V12.5H932.5C929.185 12.5 926.005 13.817 923.661 16.1612C921.317 18.5054 920 21.6848 920 25V25Z" fill="#F24E1E"/>
<path d="M920 50C920 53.3152 921.317 56.4946 923.661 58.8388C926.005 61.183 929.185 62.5 932.5 62.5H945V37.5H932.5C929.185 37.5 926.005 38.817 923.661 41.1612C921.317 43.5054 920 46.6848 920 50V50Z" fill="#A259FF"/>
</g>
<rect x="1057.5" y="12.5" width="75" height="75" rx="8" fill="#470137"/>
<path fill-rule="evenodd" clip-rule="evenodd" d="M1111.18 67.9241C1108.89 67.9551 1106.6 67.4903 1104.53 66.53C1102.59 65.6315 1100.98 64.1444 1099.87 62.3166C1098.73 60.4268 1098.17 58.0722 1098.17 55.253C1098.14 52.9604 1098.73 50.6989 1099.87 48.7161C1101.04 46.7024 1102.74 45.0294 1104.78 43.9141C1106.94 42.7059 1109.54 42.1172 1112.6 42.1172C1112.75 42.1172 1112.97 42.1172 1113.24 42.1482C1113.39 42.1649 1113.55 42.1726 1113.72 42.1809C1113.87 42.1881 1114.03 42.1958 1114.2 42.2102V32.4203C1114.2 32.2034 1114.29 32.0795 1114.51 32.0795H1120.78C1120.94 32.0485 1121.06 32.1725 1121.09 32.2964V61.8519C1121.09 62.3583 1121.12 62.9158 1121.14 63.5244L1121.15 63.7107C1121.2 64.261 1121.23 64.7891 1121.26 65.2576L1121.28 65.5076C1121.28 65.7245 1121.18 65.9103 1120.97 66.0033C1119.36 66.6849 1117.66 67.1805 1115.93 67.4903C1114.36 67.7692 1112.78 67.9241 1111.18 67.9241ZM1114.2 61.728V48.0965C1113.92 48.0345 1113.65 47.9726 1113.37 47.9416C1113.03 47.9106 1112.69 47.8796 1112.35 47.8796C1111.14 47.8796 1109.94 48.1275 1108.86 48.6851C1107.81 49.2118 1106.91 49.9863 1106.23 50.9777C1105.55 51.9691 1105.21 53.3012 1105.21 54.9122C1105.18 55.9965 1105.37 57.0809 1105.74 58.1032C1106.05 58.9397 1106.51 59.6832 1107.13 60.3029C1107.72 60.8605 1108.43 61.2942 1109.23 61.5421C1110.06 61.8209 1110.93 61.9448 1111.79 61.9448C1112.26 61.9448 1112.69 61.9138 1113.09 61.8829C1113.49 61.9138 1113.83 61.8519 1114.2 61.728Z" fill="#FF61F6"/>
<path d="M1087.64 50.575L1096.91 35.2396C1096.97 35.1776 1097.03 35.0537 1097 35.0227C1096.97 34.8678 1096.81 34.7748 1096.66 34.8058H1090.14C1089.99 34.7748 1089.86 34.8058 1089.74 34.8678C1089.65 34.9297 1089.59 35.0537 1089.55 35.1776C1089.28 35.696 1089 36.2247 1088.72 36.7574C1088.32 37.53 1087.91 38.311 1087.49 39.0811C1086.78 40.3823 1086.06 41.6835 1085.39 42.9847C1084.71 44.2859 1084.03 45.6181 1083.38 46.9812H1083.32C1082.67 45.649 1081.99 44.3479 1081.25 43.0467C1080.61 41.9818 1080.02 40.9168 1079.42 39.8349C1079.29 39.5949 1079.16 39.354 1079.02 39.1121C1078.31 37.78 1077.63 36.4478 1077.05 35.1156C1076.95 34.9917 1076.86 34.8988 1076.74 34.8368C1076.61 34.8058 1076.46 34.7748 1076.3 34.7748H1069.29C1069.17 34.7748 1069.05 34.8058 1068.98 34.8988C1068.92 34.9607 1068.95 35.0847 1069.05 35.2086L1078.4 51.1016L1068.8 66.9017C1068.74 66.9947 1068.71 67.1186 1068.74 67.2425C1068.74 67.3597 1068.79 67.3528 1068.87 67.3425C1068.9 67.3391 1068.92 67.3355 1068.95 67.3355H1075.75C1076.09 67.3355 1076.34 67.3045 1076.46 66.9947C1076.93 66.1479 1077.41 65.2736 1077.88 64.3993C1078.12 63.9621 1078.35 63.5249 1078.59 63.0911C1079.27 61.7899 1079.98 60.4578 1080.69 59.1256C1081.4 57.7934 1082.11 56.4613 1082.76 55.1291H1082.82C1083.56 56.4922 1084.3 57.8244 1085.05 59.1566C1085.79 60.4887 1086.5 61.7899 1087.15 63.0601C1087.47 63.7107 1087.8 64.3536 1088.13 64.9964C1088.47 65.6393 1088.8 66.2821 1089.12 66.9327C1089.34 67.2425 1089.68 67.2735 1090.17 67.2735H1097.25C1097.32 67.2615 1097.38 67.2681 1097.43 67.2734C1097.51 67.282 1097.57 67.2876 1097.59 67.2115C1097.62 67.0876 1097.59 66.9637 1097.52 66.8398L1087.64 50.575Z" fill="#FF61F6"/>
<rect x="1207.5" y="12.5" width="75" height="75" rx="8" fill="#330000"/>
<path d="M1261.94 40.5393C1260.9 40.5692 1259.89 40.1806 1259.14 39.4931C1258.41 38.7459 1258.03 37.7594 1258.07 36.7431C1258.03 35.7268 1258.44 34.7703 1259.2 34.0828C1259.95 33.3953 1260.96 33.0366 1262 33.0366C1263.23 33.0366 1264.17 33.3953 1264.87 34.0828C1265.56 34.8002 1265.94 35.7567 1265.91 36.7431C1265.94 37.7594 1265.56 38.7459 1264.8 39.4931C1264.08 40.2105 1263.01 40.5991 1261.94 40.5393Z" fill="#FF9A00"/>
<path d="M1258.41 66.485V43.4687C1258.41 43.1698 1258.54 43.0502 1258.82 43.0502H1265.06C1265.34 43.0502 1265.46 43.1997 1265.46 43.4687V66.485C1265.46 66.8138 1265.34 66.9632 1265.06 66.9632H1258.88C1258.57 66.9632 1258.41 66.7839 1258.41 66.485Z" fill="#FF9A00"/>
<path fill-rule="evenodd" clip-rule="evenodd" d="M1245.1 59.4904H1233.38L1230.99 66.5149C1230.93 66.7839 1230.68 66.9633 1230.39 66.9334H1224.47C1224.13 66.9334 1224.03 66.754 1224.13 66.3953L1234.26 38.6861C1234.29 38.599 1234.32 38.5093 1234.35 38.4172C1234.42 38.193 1234.49 37.9538 1234.58 37.6997C1234.71 37.0719 1234.77 36.4143 1234.77 35.7567C1234.74 35.6073 1234.86 35.4578 1235.02 35.4279H1243.17C1243.43 35.4279 1243.55 35.5176 1243.58 35.6671L1255.08 66.4551C1255.17 66.7839 1255.08 66.9334 1254.76 66.9334H1248.18C1247.96 66.9633 1247.74 66.8138 1247.68 66.6046L1245.1 59.4904ZM1235.21 53.4225H1243.21C1243.02 52.7948 1242.77 52.0475 1242.48 51.2703C1242.2 50.4633 1241.92 49.5964 1241.63 48.6997C1241.47 48.2364 1241.32 47.7805 1241.18 47.3247C1241.03 46.8689 1240.88 46.413 1240.72 45.9497C1240.4 45.023 1240.12 44.1562 1239.87 43.2893C1239.76 42.9189 1239.65 42.5602 1239.55 42.2132C1239.42 41.7762 1239.3 41.3577 1239.18 40.9578H1239.11C1238.83 42.2431 1238.48 43.5285 1238.04 44.8138C1237.86 45.3602 1237.68 45.9152 1237.5 46.4756C1237.21 47.3867 1236.91 48.3124 1236.59 49.2377C1236.15 50.7622 1235.68 52.1671 1235.21 53.4225Z" fill="#FF9A00"/>
<rect x="1357.5" y="12.5" width="75" height="75" rx="8" fill="#001E36"/>
<path fill-rule="evenodd" clip-rule="evenodd" d="M1372.44 65.9576V33.5063C1372.44 33.2856 1372.53 33.1594 1372.75 33.1594C1373.28 33.1594 1373.78 33.1594 1374.5 33.1279C1374.89 33.1117 1375.28 33.1038 1375.69 33.0957C1376.07 33.088 1376.46 33.0801 1376.87 33.0648C1377.31 33.0485 1377.76 33.0406 1378.23 33.0325C1378.67 33.0249 1379.12 33.017 1379.59 33.0018C1380.56 32.9702 1381.5 32.9702 1382.44 32.9702C1385 32.9702 1387.12 33.2856 1388.87 33.9479C1390.44 34.484 1391.87 35.367 1393.06 36.5339C1394.06 37.543 1394.84 38.773 1395.34 40.129C1395.81 41.4536 1396.06 42.8097 1396.06 44.2288C1396.06 46.941 1395.44 49.1801 1394.19 50.9461C1392.94 52.7122 1391.19 54.0367 1389.16 54.7936C1387.03 55.582 1384.69 55.8659 1382.12 55.8659C1381.37 55.8659 1380.87 55.8659 1380.56 55.8343C1380.25 55.8028 1379.81 55.8028 1379.22 55.8028L1379.22 65.9261C1379.25 66.1468 1379.09 66.336 1378.87 66.3676H1372.81C1372.56 66.3676 1372.44 66.2414 1372.44 65.9576ZM1379.25 39.246V49.8423L1379.34 49.8491C1379.74 49.8782 1380.12 49.9054 1380.47 49.9054H1382.12C1383.34 49.9054 1384.56 49.7162 1385.72 49.3378C1386.72 49.0539 1387.59 48.4547 1388.28 47.6663C1388.94 46.8779 1389.25 45.8056 1389.25 44.418C1389.28 43.4404 1389.03 42.4628 1388.53 41.6113C1388 40.7913 1387.25 40.1606 1386.34 39.8137C1385.19 39.3406 1383.94 39.1514 1382.66 39.1829C1381.84 39.1829 1381.12 39.1829 1380.53 39.2145C1379.91 39.1829 1379.47 39.2145 1379.25 39.246Z" fill="#31A8FF"/>
<path d="M1412.56 46.8463C1413.62 47.0671 1414.62 47.414 1415.56 47.9186C1415.69 47.9817 1415.84 47.9817 1416.12 47.9186C1416.22 47.8555 1416.28 47.7294 1416.28 47.6032V42.4627C1416.28 42.3366 1416.25 42.2104 1416.22 42.0843C1416.15 41.9582 1416.03 41.832 1415.9 41.8005C1415.06 41.4536 1414.15 41.2013 1413.22 41.0751C1411.94 40.8859 1410.62 40.7913 1409.34 40.7913C1407.12 40.7913 1405.28 41.1382 1403.81 41.8951C1402.47 42.5258 1401.31 43.535 1400.53 44.7965C1399.84 45.9633 1399.47 47.2563 1399.47 48.6124C1399.44 49.7162 1399.69 50.82 1400.19 51.8291C1400.78 52.9014 1401.59 53.816 1402.56 54.5098C1403.94 55.4559 1405.4 56.2127 1407 56.7804C1408.53 57.3796 1409.56 57.8526 1410.06 58.2626C1410.56 58.6726 1410.81 59.0826 1410.81 59.5241C1410.81 60.0918 1410.47 60.6279 1409.97 60.8486C1409.4 61.1325 1408.56 61.2901 1407.37 61.2901C1406.12 61.2901 1404.87 61.1325 1403.69 60.8171C1402.31 60.5017 1401.03 59.9971 1399.81 59.2718C1399.72 59.2087 1399.62 59.1772 1399.53 59.2403C1399.44 59.3033 1399.4 59.4295 1399.4 59.5241V65.0115C1399.37 65.2638 1399.53 65.4845 1399.75 65.6107C1400.75 66.0837 1401.84 66.4306 1402.94 66.6199C1404.34 66.9037 1405.75 67.0298 1407.19 67.0298C1409.44 67.0298 1411.31 66.6829 1412.84 66.0207C1414.25 65.453 1415.47 64.4754 1416.34 63.2139C1417.15 61.984 1417.59 60.5017 1417.56 59.0195C1417.59 57.8842 1417.34 56.7804 1416.84 55.7712C1416.25 54.699 1415.4 53.816 1414.37 53.1537C1412.87 52.2076 1411.25 51.4192 1409.56 50.8515C1408.81 50.5361 1408.06 50.1892 1407.34 49.8108C1406.94 49.59 1406.56 49.3062 1406.28 48.9593C1406.09 48.707 1405.97 48.4232 1405.97 48.1393C1405.97 47.8555 1406.06 47.5402 1406.22 47.2879C1406.44 46.9725 1406.78 46.7517 1407.19 46.6571C1407.78 46.4994 1408.44 46.4048 1409.06 46.4364C1410.25 46.4364 1411.4 46.594 1412.56 46.8463Z" fill="#31A8FF"/>
<defs>
<linearGradient id="paint0_linear_17_157" x1="71.2235" y1="12.5" x2="71.2235" y2="87.5" gradientUnits="userSpaceOnUse">
<stop stop-color="#32B5F1"/>
<stop offset="1" stop-color="#2B9FED"/>
</linearGradient>
<linearGradient id="paint1_linear_17_157" x1="63.7547" y1="21.9656" x2="10.2367" y2="66.8883" gradientUnits="userSpaceOnUse">
<stop stop-color="#0F6FB3"/>
<stop offset="0.270551" stop-color="#1279B7"/>
<stop offset="0.421376" stop-color="#1176B5"/>
<stop offset="0.618197" stop-color="#0E69AC"/>
<stop offset="0.855344" stop-color="#0F70AF"/>
<stop offset="1" stop-color="#0F6DAD"/>
</linearGradient>
<linearGradient id="paint2_linear_17_157" x1="10.5943" y1="33.8848" x2="63.9619" y2="78.0731" gradientUnits="userSpaceOnUse">
<stop stop-color="#1791D2"/>
<stop offset="1" stop-color="#1173C5"/>
</linearGradient>
<clipPath id="clip0_17_157">
<rect width="50" height="75" fill="white" transform="translate(920 12.5)"/>
</clipPath>
</defs>
</svg>
