<svg width="156" height="156" viewBox="0 0 156 156" fill="none" xmlns="http://www.w3.org/2000/svg">
<circle cx="78.4167" cy="78.4167" r="60.4167" fill="#5468FF"/>
<path d="M77.9906 84C83.3728 84 87.6562 79.635 87.6562 74.25C87.6562 68.865 83.2931 64.5 77.9906 64.5C72.6084 64.5 68.325 68.865 68.325 74.25C68.2406 79.6313 72.6094 84 77.9906 84ZM82.6781 87H73.3219C65.9625 87 60 92.5969 60 99.4969C60 100.884 61.1906 102 62.6625 102H93.3375C94.8094 102 96 100.884 96 99.4969C96 92.5969 90.0375 87 82.6781 87ZM96 69C100.142 69 103.5 65.6419 103.5 61.5C103.5 57.3581 100.144 54 96 54C91.8581 54 88.5 57.3581 88.5 61.5C88.5 65.6419 91.8563 69 96 69ZM65.2406 74.25C65.2406 73.7392 65.3327 73.2534 65.3915 72.7584C64.3687 72.1969 63.2437 72 62.0531 72H56.2575C51.6975 72 48 75.9187 48 80.7469C48 81.7125 48.7394 82.5 49.6519 82.5H68.355C66.4406 80.2687 65.2406 77.4094 65.2406 74.25ZM60 69C64.1419 69 67.5 65.6419 67.5 61.5C67.5 57.3581 64.1437 54 60 54C55.8581 54 52.5 57.3581 52.5 61.5C52.5 65.6419 55.8581 69 60 69ZM99.7406 72H93.9431C92.7431 72 91.6106 72.2847 90.5813 72.7725C90.6375 73.2656 90.7312 73.7437 90.7312 74.25C90.7312 77.4103 89.5331 80.2697 87.6225 82.5H106.344C107.259 82.5 108 81.7125 108 80.7469C108 75.9187 104.306 72 99.7406 72Z" fill="white"/>
<circle opacity="0.67" cx="78" cy="78" r="76.5" stroke="#5468FF" stroke-width="3"/>
</svg>
