<svg width="156" height="156" viewBox="0 0 156 156" fill="none" xmlns="http://www.w3.org/2000/svg">
<circle cx="78.4167" cy="78.4167" r="60.4167" fill="#5468FF"/>
<path d="M78.5 54.3408C63.3105 54.3408 51.0967 64.3439 51.0967 76.6846C51.0967 82.0148 53.3901 86.8875 57.2165 90.7246C55.8737 96.1354 51.3867 100.959 51.333 101.012C51.0913 101.254 51.0242 101.628 51.1719 101.951C51.306 102.273 51.6038 102.463 51.9529 102.463C59.0696 102.463 64.3172 99.0509 67.0565 96.9422C70.5616 98.2581 74.4707 99.0251 78.5936 99.0251C93.783 99.0251 105.997 89.0209 105.997 76.778C105.997 64.5352 93.6894 54.3408 78.5 54.3408ZM64.6533 80.1221C62.7466 80.1221 61.2158 78.5913 61.2158 76.7812C61.2158 74.9712 62.7466 73.3437 64.6533 73.3437C66.5601 73.3437 68.0908 74.8745 68.0908 76.7812C68.0908 78.688 66.6514 80.1221 64.6533 80.1221ZM78.5 80.1221C76.5933 80.1221 75.1592 78.5913 75.1592 76.7812C75.1592 74.9712 76.6899 73.3437 78.5 73.3437C80.3101 73.3437 81.8408 74.8745 81.8408 76.7812C81.8408 78.688 80.4121 80.1221 78.5 80.1221ZM92.1533 80.1221C90.2466 80.1221 88.7158 78.5913 88.7158 76.7812C88.7158 74.9712 90.2466 73.3437 92.1533 73.3437C94.0601 73.3437 95.5908 74.8745 95.5908 76.7812C95.5908 78.688 94.1514 80.1221 92.1533 80.1221Z" fill="white"/>
<circle opacity="0.67" cx="78" cy="78" r="76.5" stroke="#5468FF" stroke-width="3"/>
</svg>
