<svg width="30" height="30" viewBox="0 0 30 30" fill="none" xmlns="http://www.w3.org/2000/svg">
<path fill-rule="evenodd" clip-rule="evenodd" d="M0 15C0 6.71573 6.71573 0 15 0C23.2843 0 30 6.71573 30 15C30 23.2843 23.2843 30 15 30C6.71573 30 0 23.2843 0 15Z" fill="#5468FF"/>
<path d="M11.9099 21H9.21473V12.3206H11.9099V21ZM10.5609 11.1366C9.69904 11.1366 9 10.4228 9 9.56091C9 9.14693 9.16445 8.74991 9.45717 8.45718C9.74989 8.16445 10.1469 8 10.5609 8C10.9748 8 11.3719 8.16445 11.6646 8.45718C11.9573 8.74991 12.1217 9.14693 12.1217 9.56091C12.1217 10.4228 11.4224 11.1366 10.5609 11.1366ZM21.9971 21H19.3077V16.7749C19.3077 15.768 19.2874 14.4766 17.9065 14.4766C16.5052 14.4766 16.2904 15.5706 16.2904 16.7024V21H13.5982V12.3206H16.1831V13.5045H16.2208C16.5806 12.8226 17.4596 12.1029 18.7709 12.1029C21.4986 12.1029 22 13.8992 22 16.2323V21H21.9971Z" fill="white"/>
</svg>
