<svg width="30" height="30" viewBox="0 0 30 30" fill="none" xmlns="http://www.w3.org/2000/svg">
<path fill-rule="evenodd" clip-rule="evenodd" d="M0 15C0 6.71573 6.71573 0 15 0C23.2843 0 30 6.71573 30 15C30 23.2843 23.2843 30 15 30C6.71573 30 0 23.2843 0 15Z" fill="#5468FF"/>
<path fill-rule="evenodd" clip-rule="evenodd" d="M15 6C10.0275 6 6 10.0275 6 15C6 18.9825 8.57625 22.3463 12.1537 23.5388C12.6037 23.6175 12.7725 23.3475 12.7725 23.1113C12.7725 22.8975 12.7613 22.1888 12.7613 21.435C10.5 21.8513 9.915 20.8838 9.735 20.3775C9.63375 20.1188 9.195 19.32 8.8125 19.1063C8.4975 18.9375 8.0475 18.5213 8.80125 18.51C9.51 18.4988 10.0163 19.1625 10.185 19.4325C10.995 20.7938 12.2887 20.4113 12.8062 20.175C12.885 19.59 13.1213 19.1963 13.38 18.9713C11.3775 18.7463 9.285 17.97 9.285 14.5275C9.285 13.5488 9.63375 12.7388 10.2075 12.1088C10.1175 11.8838 9.8025 10.9613 10.2975 9.72375C10.2975 9.72375 11.0512 9.4875 12.7725 10.6463C13.4925 10.4438 14.2575 10.3425 15.0225 10.3425C15.7875 10.3425 16.5525 10.4438 17.2725 10.6463C18.9937 9.47625 19.7475 9.72375 19.7475 9.72375C20.2425 10.9613 19.9275 11.8838 19.8375 12.1088C20.4113 12.7388 20.76 13.5375 20.76 14.5275C20.76 17.9813 18.6562 18.7463 16.6537 18.9713C16.98 19.2525 17.2613 19.7925 17.2613 20.6363C17.2613 21.84 17.25 22.8075 17.25 23.1113C17.25 23.3475 17.4187 23.6288 17.8687 23.5388C19.6554 22.9355 21.2079 21.7873 22.3077 20.2555C23.4076 18.7238 23.9995 16.8857 24 15C24 10.0275 19.9725 6 15 6Z" fill="white"/>
</svg>
