<svg width="24" height="24" viewBox="0 0 24 24" fill="none" xmlns="http://www.w3.org/2000/svg">
<path d="M19.4666 17.8132C17.7298 17.7936 16.0461 17.2126 14.6668 16.1569C13.2876 15.1013 12.2869 13.6278 11.8143 11.9565C11.3417 10.2852 11.4226 8.50581 12.0448 6.88425C12.6671 5.2627 13.7973 3.88599 15.2666 2.95984C14.5242 2.76684 13.7603 2.66829 12.9932 2.6665C10.5179 2.6665 8.14392 3.64983 6.39358 5.40017C4.64324 7.15051 3.65991 9.52448 3.65991 11.9998C3.65991 14.4752 4.64324 16.8492 6.39358 18.5995C8.14392 20.3498 10.5179 21.3332 12.9932 21.3332C14.3955 21.3319 15.779 21.0106 17.0383 20.3936C18.2976 19.7767 19.3995 18.8804 20.2599 17.7732C19.9963 17.8 19.7315 17.8133 19.4666 17.8132Z" fill="white"/>
</svg>
