<svg width="24" height="24" viewBox="0 0 24 24" fill="none" xmlns="http://www.w3.org/2000/svg">
<path fill-rule="evenodd" clip-rule="evenodd" d="M12.375 2C12.9963 2 13.5 2.50368 13.5 3.125V13.3958L17.6342 9.77835C18.1018 9.36921 18.8125 9.41659 19.2216 9.88418C19.6308 10.3518 19.5834 11.0625 19.1158 11.4716L13.1158 16.7216C12.6917 17.0928 12.0583 17.0928 11.6342 16.7216L5.63418 11.4716C5.16659 11.0625 5.11921 10.3518 5.52835 9.88418C5.93749 9.41659 6.64823 9.36921 7.11582 9.77835L11.25 13.3958V3.125C11.25 2.50368 11.7537 2 12.375 2ZM4.5 20.375C4.5 19.7537 5.00368 19.25 5.625 19.25H19.125C19.7463 19.25 20.25 19.7537 20.25 20.375C20.25 20.9963 19.7463 21.5 19.125 21.5H5.625C5.00368 21.5 4.5 20.9963 4.5 20.375Z" fill="white"/>
</svg>
