<svg width="156" height="156" viewBox="0 0 156 156" fill="none" xmlns="http://www.w3.org/2000/svg">
<circle cx="78.4167" cy="78.4167" r="60.4167" fill="#5468FF"/>
<path d="M70.042 99.8019C70.042 100.478 70.2371 101.138 70.6096 101.702L72.4508 104.462C73.0148 105.308 74.2953 105.996 75.3125 105.996H81.9372C82.9511 105.996 84.2318 105.308 84.7957 104.462L86.6305 101.703C86.9461 101.227 87.205 100.374 87.205 99.8019L87.2188 95.591H70.0312L70.042 99.8019ZM78.5605 51.0016C67.6078 51.0351 59.7188 59.9129 59.7188 69.8097C59.7188 74.5771 61.4848 78.9234 64.398 82.2492C66.1737 84.273 68.9463 88.5043 70.0076 92.0729C70.011 92.0997 70.0177 92.1284 70.021 92.1569H87.23C87.2334 92.1284 87.2401 92.1014 87.2435 92.0729C88.3042 88.5043 91.0773 84.273 92.853 82.2492C95.7695 79.0158 97.5312 74.6759 97.5312 69.8097C97.5312 59.4446 89.0342 50.9697 78.5605 51.0016ZM78.625 61.3137C73.8845 61.3137 70.0312 65.1691 70.0312 69.8108C70.0312 70.8517 69.2578 71.6251 68.3125 71.6251C67.3672 71.6251 66.5938 70.8517 66.5938 69.9064C66.5938 63.272 71.9917 57.9718 78.625 57.9718C79.575 57.9718 80.3438 58.7408 80.3438 59.6906C80.3438 60.6403 79.5703 61.3137 78.625 61.3137Z" fill="white"/>
<circle opacity="0.67" cx="78" cy="78" r="76.5" stroke="#5468FF" stroke-width="3"/>
</svg>
