<svg width="156" height="156" viewBox="0 0 156 156" fill="none" xmlns="http://www.w3.org/2000/svg">
<circle cx="78.4167" cy="78.4167" r="60.4167" fill="#5468FF"/>
<g clip-path="url(#clip0_17_312)">
<path d="M88.751 56.5054C86.5273 58.5732 84.5078 60.7485 82.7246 62.9346C79.792 58.9084 76.1504 54.8135 72.0469 51C61.4927 60.7883 54 73.5586 54 81.25C54 94.9248 64.7637 106 78.0625 106C91.3613 106 102.125 94.9248 102.125 81.25C102.125 75.5352 96.5391 63.7295 88.751 56.5054ZM86.667 93.0986C84.3359 94.7207 81.4785 95.6875 78.374 95.6875C70.6257 95.6875 64.3125 90.5603 64.3125 82.2383C64.3125 78.0886 66.9164 74.4352 72.1264 68.1875C72.8783 69.0469 82.7482 81.6582 82.7482 81.6582L89.0464 74.4738C89.4895 75.1989 89.8915 75.9262 90.2538 76.6115C93.1982 82.2168 91.9629 89.3926 86.667 93.0986Z" fill="white"/>
</g>
<circle opacity="0.67" cx="78" cy="78" r="76.5" stroke="#5468FF" stroke-width="3"/>
<defs>
<clipPath id="clip0_17_312">
<rect width="48.125" height="55" fill="white" transform="translate(54 51)"/>
</clipPath>
</defs>
</svg>
